<svg version="1.2" xmlns="http://www.w3.org/2000/svg" viewBox="0 0 525 99" width="525" height="99">
	<title>New Project</title>
	<style>
		.s0 { fill: #f2f1f1 } 
	</style>
	<path id="Hangoutz" class="s0" aria-label="Hangoutz"  d="m65.6 72.8h13.1l0.1-30.9 33.7 0.1-0.1 30.9h13.3v-72.8h-13.2v30.8h-33.7v-30.8h-13.2zm89.5 1.2c8.6 0 13.7-4 16.1-8.6h0.4v7.5h12.3l0.1-36.5c0-14.4-11.8-18.8-22.2-18.8-11.4 0-20.2 5.1-23.1 15.1l12 1.7c1.3-3.8 4.9-6.9 11.2-6.9 6 0 9.2 3 9.2 8.4v0.2c0 3.7-3.9 3.9-13.5 4.9-10.6 1.1-20.7 4.3-20.7 16.6 0 10.7 7.8 16.4 18.2 16.4zm3.4-9.5c-5.4 0-9.2-2.4-9.2-7.2 0-4.9 4.3-6.9 10.1-7.8 3.3-0.4 10.1-1.3 11.7-2.6v6.4c0 6.1-4.9 11.2-12.6 11.2zm51.3-23.5c0-7.9 4.8-12.5 11.5-12.5 6.7 0 10.7 4.4 10.6 11.7v32.7h12.9v-34.7c0.1-13.1-7.4-20.5-18.7-20.5-8.1 0-13.7 3.9-16.2 9.9h-0.7v-9.2h-12.2l-0.1 54.5h12.9zm71.8 53.6c14.7 0 25.6-6.7 25.6-20.7v-55.4h-12.7v9h-0.7c-1.9-3.9-6-9.7-15.6-9.7-12.6 0-22.5 9.8-22.6 27.8 0 17.7 9.9 26.6 22.5 26.6 9.3 0 13.7-5 15.7-9h0.6v10.4c0 8-5.3 11.3-12.6 11.3-7.8 0-11.2-3.7-12.7-6.9l-11.6 2.8c2.3 7.7 10.2 13.8 24.1 13.8zm0.1-32.4c-8.5 0-13-6.7-13-16.7 0.1-9.9 4.5-17.2 13-17.2 8.3 0 12.8 6.9 12.8 17.2 0 10.4-4.6 16.7-12.8 16.7zm62.5 11.9c16 0 26.1-11.2 26.1-28.1 0.1-16.9-10.1-28.2-26.1-28.2-16 0-26.1 11.3-26.1 28.2 0 16.9 10.1 28.1 26.1 28.1zm0.1-10.3c-8.9 0-13.2-7.9-13.2-17.8 0-10 4.4-18 13.2-18 8.7 0 13 8 13 18 0 10-4.3 17.8-13 17.8zm71.7-13.6c0 8.3-6 12.4-11.6 12.4-6.2 0-10.3-4.4-10.3-11.3v-32.7h-12.9v34.7c0 13.1 7.4 20.5 18.2 20.5 8.1 0 13.9-4.3 16.4-10.4h0.6l-0.1 9.7h12.5l0.1-54.5h-12.9zm53.3-31.6h-10.7v-13.1h-12.9v13.1h-7.7v9.9h7.7v30.4c-0.1 10.2 7.4 15.3 17 15 3.7-0.1 6.2-0.8 7.6-1.3l-2.2-10c-0.7 0.1-2.1 0.5-3.7 0.5-3.3 0-5.9-1.2-5.9-6.4l0.1-28.2 10.7 0.1zm10 54.5h44.8v-10.6h-27.7v-0.5l26.8-34.6v-8.8h-42.9v10.6h27.2v0.5l-28.2 35.2z"/>
	<path id="Shape 1" class="s0" d="m0.7 98.8v-6.7l236.2-1.1 0.1 6.8z"/>
</svg>